<svg width="39" height="39" viewBox="0 0 39 39" fill="none" xmlns="http://www.w3.org/2000/svg">
<path d="M31.1569 32.2882H4.7227C4.56754 32.2882 4.41875 32.2266 4.30904 32.1169C4.19933 32.0072 4.1377 31.8584 4.1377 31.7032V9.64091C4.1377 9.48576 4.19933 9.33696 4.30904 9.22725C4.41875 9.11754 4.56754 9.05591 4.7227 9.05591H24.4528C24.6079 9.05591 24.7567 9.11754 24.8665 9.22725C24.9762 9.33696 25.0378 9.48576 25.0378 9.64091C25.0378 9.79606 24.9762 9.94486 24.8665 10.0546C24.7567 10.1643 24.6079 10.2259 24.4528 10.2259H5.3077V31.1182H30.5719V15.8458C30.5719 15.6907 30.6335 15.5419 30.7432 15.4322C30.8529 15.3224 31.0017 15.2608 31.1569 15.2608C31.312 15.2608 31.4608 15.3224 31.5706 15.4322C31.6803 15.5419 31.7419 15.6907 31.7419 15.8458V31.7032C31.7419 31.8584 31.6803 32.0072 31.5706 32.1169C31.4608 32.2266 31.312 32.2882 31.1569 32.2882Z" fill="#01823E"/>
<path d="M20.9545 17.9401C20.7986 17.9401 20.649 17.8787 20.5381 17.7692C20.4271 17.6598 20.3638 17.511 20.3617 17.3551C20.36 17.3304 20.36 17.3057 20.3617 17.281V10.222H15.3775V17.242C15.3814 17.2796 15.3814 17.3175 15.3775 17.3551C15.3807 17.5065 15.3238 17.653 15.2193 17.7626C15.1148 17.8722 14.9712 17.936 14.8198 17.9401C14.6624 17.9402 14.5111 17.8793 14.3977 17.7703C14.2842 17.6612 14.2175 17.5124 14.2114 17.3551V9.637C14.2124 9.48217 14.2744 9.33396 14.3839 9.22447C14.4934 9.11499 14.6416 9.05302 14.7964 9.052H20.9584C21.1133 9.05302 21.2615 9.11499 21.371 9.22447C21.4804 9.33396 21.5424 9.48217 21.5434 9.637V17.3395C21.5455 17.418 21.5318 17.496 21.5031 17.5691C21.4744 17.6421 21.4313 17.7086 21.3763 17.7647C21.3214 17.8207 21.2557 17.8651 21.1833 17.8953C21.1108 17.9254 21.033 17.9407 20.9545 17.9401Z" fill="#01823E"/>
<path d="M20.943 17.94C20.8554 17.9401 20.769 17.9205 20.69 17.8827C20.611 17.8449 20.5415 17.7899 20.4867 17.7216L17.4174 13.8723C17.3186 13.7513 17.2719 13.596 17.2877 13.4406C17.3034 13.2852 17.3802 13.1424 17.5012 13.0436C17.6222 12.9448 17.7775 12.8982 17.933 12.9139C18.0884 12.9296 18.2312 13.0064 18.33 13.1274L21.4032 16.9767C21.478 17.0622 21.5261 17.1678 21.5415 17.2803C21.557 17.3928 21.5392 17.5074 21.4902 17.6099C21.4412 17.7124 21.3633 17.7983 21.266 17.857C21.1688 17.9156 21.0565 17.9445 20.943 17.94Z" fill="#01823E"/>
<path d="M14.82 17.9401C14.7096 17.9411 14.6013 17.9107 14.5076 17.8525C14.4139 17.7942 14.3388 17.7105 14.2909 17.6111C14.2431 17.5117 14.2245 17.4008 14.2374 17.2912C14.2503 17.1816 14.2941 17.078 14.3637 16.9924L17.433 13.0924C17.5366 12.999 17.6702 12.9456 17.8097 12.9421C17.9492 12.9385 18.0854 12.985 18.1937 13.073C18.302 13.161 18.3752 13.2849 18.4002 13.4222C18.4252 13.5595 18.4003 13.7012 18.33 13.8217L15.2607 17.7217C15.2075 17.7879 15.1405 17.8418 15.0644 17.8795C14.9883 17.9172 14.9049 17.9379 14.82 17.9401Z" fill="#01823E"/>
<path d="M13.5914 29.8624H7.23832C7.08317 29.8624 6.93437 29.8007 6.82466 29.691C6.71495 29.5813 6.65332 29.4325 6.65332 29.2774C6.65332 29.1222 6.71495 28.9734 6.82466 28.8637C6.93437 28.754 7.08317 28.6924 7.23832 28.6924H13.5914C13.7466 28.6924 13.8954 28.754 14.0051 28.8637C14.1148 28.9734 14.1764 29.1222 14.1764 29.2774C14.1764 29.4325 14.1148 29.5813 14.0051 29.691C13.8954 29.8007 13.7466 29.8624 13.5914 29.8624Z" fill="#01823E"/>
<path d="M30.7712 16.4425C29.4049 16.4432 28.0692 16.0388 26.9328 15.2803C25.7965 14.5219 24.9106 13.4434 24.3872 12.1814C23.8639 10.9194 23.7265 9.53055 23.9926 8.19049C24.2587 6.85042 24.9162 5.61937 25.882 4.65303C26.8478 3.68669 28.0784 3.02849 29.4184 2.76166C30.7583 2.49484 32.1472 2.6314 33.4095 3.15405C34.6718 3.6767 35.7507 4.56197 36.5099 5.69789C37.269 6.83381 37.6742 8.16934 37.6742 9.53556C37.6721 11.3661 36.9443 13.1211 35.6503 14.4158C34.3563 15.7106 32.6017 16.4394 30.7712 16.4425ZM30.7712 3.79866C29.6363 3.79789 28.5268 4.1337 27.5828 4.76361C26.6389 5.39352 25.903 6.28923 25.4682 7.33744C25.0334 8.38566 24.9192 9.53928 25.1401 10.6524C25.361 11.7655 25.9071 12.7881 26.7093 13.5908C27.5114 14.3935 28.5337 14.9403 29.6466 15.1619C30.7596 15.3836 31.9133 15.2702 32.9618 14.8361C34.0103 14.402 34.9065 13.6667 35.537 12.7232C36.1676 11.7797 36.5042 10.6704 36.5042 9.53556C36.5021 8.01535 35.8975 6.55794 34.823 5.48262C33.7484 4.4073 32.2914 3.80176 30.7712 3.79866Z" fill="#01823E"/>
<path d="M30.771 10.1399C30.6159 10.1399 30.4671 10.0783 30.3574 9.96855C30.2477 9.85884 30.186 9.71004 30.186 9.55489V5.84989C30.186 5.69474 30.2477 5.54594 30.3574 5.43624C30.4671 5.32653 30.6159 5.26489 30.771 5.26489C30.9262 5.26489 31.075 5.32653 31.1847 5.43624C31.2944 5.54594 31.356 5.69474 31.356 5.84989V9.55099C31.3565 9.62814 31.3418 9.70463 31.3126 9.77606C31.2835 9.84749 31.2405 9.91244 31.1861 9.96717C31.1317 10.0219 31.067 10.0653 30.9958 10.095C30.9246 10.1246 30.8482 10.1399 30.771 10.1399Z" fill="#01823E"/>
<path d="M33.2435 12.5931C33.1666 12.5937 33.0903 12.5788 33.0193 12.5493C32.9483 12.5198 32.8839 12.4764 32.8301 12.4215L30.3575 9.94889C30.3032 9.89358 30.2603 9.82811 30.2313 9.75623C30.2023 9.68436 30.1878 9.60747 30.1885 9.52997C30.1892 9.45247 30.2052 9.37588 30.2355 9.30455C30.2659 9.23323 30.3099 9.16858 30.3653 9.11429C30.4206 9.06 30.486 9.01714 30.5579 8.98815C30.6298 8.95916 30.7067 8.94461 30.7842 8.94534C30.8617 8.94606 30.9383 8.96204 31.0096 8.99237C31.0809 9.0227 31.1456 9.06678 31.1999 9.12209L33.6725 11.5947C33.7272 11.6487 33.7706 11.7131 33.8003 11.7841C33.8299 11.855 33.8452 11.9312 33.8452 12.0081C33.8452 12.085 33.8299 12.1611 33.8003 12.2321C33.7706 12.3031 33.7272 12.3674 33.6725 12.4215C33.6171 12.4787 33.5502 12.5235 33.4763 12.5531C33.4024 12.5827 33.323 12.5963 33.2435 12.5931Z" fill="#01823E"/>
</svg>
